<svg width="28" height="19" viewBox="0 0 28 19" fill="none" xmlns="http://www.w3.org/2000/svg">
<path d="M14.6933 5.66675H13.3599C12.6266 5.66675 12.0266 5.06675 12.0266 4.33341V3.00008C12.0266 2.26675 12.6266 1.66675 13.3599 1.66675H14.6933C15.4266 1.66675 16.0266 2.26675 16.0266 3.00008V4.33341C16.0266 5.06675 15.4266 5.66675 14.6933 5.66675Z" stroke="#292D32" stroke-width="1.5" stroke-linecap="round" stroke-linejoin="round"/>
<path d="M2.35994 17.8934H3.69328C4.42661 17.8934 5.02661 17.2934 5.02661 16.5601V15.2267C5.02661 14.4934 4.42661 13.8933 3.69328 13.8933H2.35994C1.62661 13.8933 1.02661 14.4934 1.02661 15.2267V16.5601C1.02661 17.2934 1.62661 17.8934 2.35994 17.8934Z" stroke="#292D32" stroke-width="1.5" stroke-linecap="round" stroke-linejoin="round"/>
<path d="M25.6401 17.8934H24.3067C23.5734 17.8934 22.9734 17.2934 22.9734 16.5601V15.2267C22.9734 14.4934 23.5734 13.8933 24.3067 13.8933H25.6401C26.3734 13.8933 26.9734 14.4934 26.9734 15.2267V16.5601C26.9734 17.2934 26.3734 17.8934 25.6401 17.8934Z" stroke="#292D32" stroke-width="1.5" stroke-linecap="round" stroke-linejoin="round"/>
<path d="M12.0267 3.74683C6.94667 4.34683 3 8.65347 3 13.8935" stroke="#292D32" stroke-width="1.5" stroke-linecap="round" stroke-linejoin="round"/>
<path d="M24.9999 13.8935C24.9999 8.66681 21.0799 4.37349 16.0266 3.74683" stroke="#292D32" stroke-width="1.5" stroke-linecap="round" stroke-linejoin="round"/>
</svg>
